<svg width="300" height="50" viewBox="0 0 4195 467" fill="none" xmlns="http://www.w3.org/2000/svg">
<path d="M3995.49 391.684C3993.54 391.684 3991.66 392.337 3990.28 393.501C3988.9 394.664 3988.12 396.242 3988.12 397.887V416.496V435.105C3988.12 436.751 3988.9 438.328 3990.28 439.491C3991.66 440.655 3993.54 441.308 3995.49 441.309H4039.74C4041.7 441.308 4043.58 440.655 4044.96 439.491C4046.34 438.328 4047.12 436.751 4047.12 435.105V416.496V397.887C4047.12 396.242 4046.34 394.664 4044.96 393.501C4043.58 392.337 4041.7 391.684 4039.74 391.684H3995.49ZM4002.87 404.09H4032.37V416.496V428.902H4002.87V416.496V404.09Z" fill="#34485C"/>
<path d="M4102.63 125.41C4100.97 125.348 4099.33 125.76 4097.98 126.581C4096.63 127.401 4095.65 128.581 4095.2 129.928C4094.75 131.276 4094.86 132.712 4095.5 134.004C4096.14 135.295 4097.29 136.366 4098.74 137.041C4176.42 174.763 4202.99 258.115 4158.15 323.45C4113.3 388.786 4014.17 411.136 3936.49 373.414C3935.65 372.968 3934.72 372.669 3933.74 372.535C3932.76 372.401 3931.75 372.435 3930.79 372.635C3929.82 372.834 3928.92 373.196 3928.12 373.698C3927.33 374.199 3926.66 374.831 3926.17 375.554C3925.67 376.278 3925.35 377.078 3925.23 377.907C3925.11 378.736 3925.19 379.578 3925.47 380.38C3925.74 381.183 3926.21 381.93 3926.84 382.578C3927.46 383.225 3928.24 383.76 3929.12 384.149C4013.7 425.223 4122.08 400.795 4170.91 329.653C4219.74 258.511 4190.7 167.357 4106.12 126.283C4105.06 125.752 4103.86 125.452 4102.63 125.41Z" fill="#34485C"/>
<path fill-rule="evenodd" clip-rule="evenodd" d="M3947.3 351.678C3945.98 351.671 3944.68 351.962 3943.54 352.52C3942.4 353.079 3941.46 353.884 3940.81 354.852L3913.65 394.421C3913.12 395.128 3912.76 395.917 3912.6 396.741C3912.44 397.566 3912.48 398.409 3912.72 399.22C3912.96 400.031 3913.39 400.794 3913.99 401.462C3914.58 402.13 3915.33 402.69 3916.19 403.108C3917.05 403.526 3918 403.793 3918.99 403.894C3919.98 403.995 3920.98 403.928 3921.93 403.696C3922.88 403.464 3923.77 403.073 3924.54 402.545C3925.31 402.017 3925.95 401.364 3926.41 400.624L3953.58 361.055C3954.24 360.117 3954.6 359.048 3954.61 357.956C3954.63 356.864 3954.3 355.788 3953.67 354.837C3953.03 353.885 3952.1 353.092 3950.99 352.538C3949.87 351.983 3948.6 351.686 3947.3 351.678ZM4115.65 106C4114.33 105.989 4113.03 106.278 4111.88 106.836C4110.74 107.395 4109.79 108.203 4109.14 109.175L4081.86 148.913C4080.88 150.34 4080.62 152.035 4081.13 153.625C4081.64 155.216 4082.87 156.571 4084.57 157.394C4086.27 158.216 4088.28 158.438 4090.17 158.011C4092.06 157.584 4093.67 156.543 4094.65 155.116L4121.93 115.378C4122.6 114.439 4122.96 113.37 4122.97 112.278C4122.99 111.186 4122.66 110.11 4122.02 109.159C4121.39 108.208 4120.46 107.415 4119.34 106.86C4118.23 106.305 4116.95 106.009 4115.65 106V106Z" fill="#34485C"/>
<path d="M4017.62 130.837C4006.95 130.837 3996.54 131.786 3986.51 133.599C3985.52 133.739 3984.58 134.045 3983.75 134.498C3982.91 134.952 3982.19 135.543 3981.63 136.238C3981.07 136.932 3980.68 137.714 3980.49 138.537C3980.31 139.36 3980.32 140.206 3980.53 141.026C3980.74 141.845 3981.14 142.62 3981.72 143.304C3982.3 143.988 3983.03 144.566 3983.88 145.005C3984.73 145.443 3985.68 145.732 3986.66 145.854C3987.65 145.976 3988.65 145.928 3989.62 145.715C3998.64 144.084 4008 143.243 4017.62 143.243C4091.02 143.243 4150.37 193.16 4150.37 254.899C4150.37 316.639 4091.02 366.556 4017.62 366.556C3944.22 366.556 3884.87 316.639 3884.87 254.899C3884.87 235.139 3890.95 216.612 3901.64 200.525C3902.11 199.814 3902.41 199.031 3902.52 198.222C3902.64 197.413 3902.56 196.593 3902.3 195.809C3902.03 195.024 3901.59 194.292 3900.99 193.652C3900.39 193.012 3899.64 192.478 3898.8 192.081C3897.95 191.683 3897.02 191.429 3896.06 191.334C3895.1 191.239 3894.12 191.303 3893.19 191.525C3892.26 191.747 3891.39 192.121 3890.63 192.625C3889.87 193.13 3889.23 193.756 3888.76 194.467C3876.89 212.345 3870.12 232.993 3870.12 254.899C3870.12 323.344 3936.24 378.962 4017.62 378.962C4098.99 378.962 4165.12 323.344 4165.12 254.899C4165.12 186.455 4098.99 130.837 4017.62 130.837Z" fill="#34485C"/>
<path d="M3953.72 428.902C3932.25 428.902 3914.37 443.021 3914.37 460.693C3914.37 462.338 3915.15 463.916 3916.53 465.079C3917.91 466.243 3919.79 466.896 3921.74 466.896H4017.62H4113.49C4115.45 466.896 4117.33 466.243 4118.71 465.079C4120.09 463.916 4120.87 462.338 4120.87 460.693C4120.87 443.021 4103.02 428.902 4081.54 428.902H3953.72ZM3953.72 441.309H4081.54C4092.32 441.309 4099.48 447.19 4102.92 454.49H4017.62H3932.32C3935.75 447.187 3942.94 441.309 3953.72 441.309Z" fill="#34485C"/>
<path fill-rule="evenodd" clip-rule="evenodd" d="M3870 254.982C3870 186.962 3936.37 131.308 4017.5 131.308C4098.63 131.308 4165 186.962 4165 254.986C4165 323.01 4098.63 378.664 4017.5 378.664C3936.37 378.664 3870 323.002 3870 254.982ZM4136.98 207.988C4134.02 200.565 4128.13 194.385 4122.23 188.2C4101.57 185.724 4079.45 184.491 4058.8 184.491C4020.45 185.724 3996.85 186.962 3985.05 200.569C3979.15 209.225 3976.2 219.115 3979.15 224.066C3980.63 226.542 3982.1 226.542 3988 224.066C3993.9 225.304 4001.28 227.776 4008.65 233.96C4017.5 242.616 4020.45 254.986 4016.02 264.88C4011.6 274.774 4001.28 278.483 3993.9 280.958C3993.17 281.265 3992.34 281.571 3991.52 281.878C3989.03 282.807 3986.52 283.737 3986.52 284.668C3986.52 287.143 3998.32 295.799 4013.08 297.037C4013.08 297.037 4033.72 298.275 4041.1 289.615C4045.52 284.668 4044.05 276.012 4041.1 268.593C4038.15 259.933 4035.2 250.039 4042.58 242.62C4049.95 235.194 4061.75 236.436 4072.07 237.669L4072.08 237.67C4082.41 238.907 4092.73 240.145 4104.53 236.436C4117.8 232.722 4128.13 222.829 4136.98 207.988ZM3914 188.2C3900.72 205.516 3884.75 232.718 3884.75 254.982C3884.75 261.579 3887.37 272.576 3889.56 281.741C3890.65 286.32 3891.63 290.442 3892.12 293.328C3906.88 325.481 3937.85 351.454 3976.2 362.585C3983.57 353.929 3992.42 347.745 4001.28 341.56C4014.55 332.904 4026.35 325.481 4039.62 327.957C4044.13 327.957 4046.92 329.4 4049.3 330.633C4050.04 331.014 4050.73 331.374 4051.43 331.666C4054.38 334.141 4054.38 334.141 4055.85 334.141C4058.8 334.141 4060.27 334.141 4063.23 331.67C4064.11 331.298 4065.13 330.815 4066.24 330.288C4068.83 329.057 4071.92 327.586 4075.02 326.719C4085.35 324.248 4097.15 326.719 4111.9 334.14L4111.9 334.141H4111.9L4111.9 334.14C4135.5 314.352 4150.25 285.905 4148.78 257.457C4148.78 246.326 4145.83 235.198 4142.88 225.304C4134.02 237.669 4122.23 246.33 4108.95 250.035C4094.2 254.986 4079.45 253.748 4069.13 252.51C4060.27 251.273 4055.85 251.273 4052.9 253.748C4049.95 256.224 4051.42 261.171 4054.38 268.589C4054.6 269.34 4054.83 270.097 4055.07 270.861L4055.07 270.866C4057.92 280.175 4061.08 290.461 4052.9 300.746C4042.58 313.116 4024.88 314.354 4016.02 314.354H4011.6C3998.32 313.116 3983.57 306.931 3976.2 299.509C3973.25 295.799 3971.77 292.09 3971.77 288.381C3973.25 279.725 3980.63 277.249 3988 274.774C3995.38 272.302 3999.8 269.831 4002.75 264.88C4005.7 259.933 4004.23 251.277 3998.32 246.33C3995.38 243.858 3990.95 242.616 3985.05 241.383C3984.74 241.318 3984.43 241.254 3984.11 241.188C3978.39 240.002 3971.54 238.585 3967.35 232.722C3958.5 222.829 3964.4 206.75 3973.25 195.618C3989.47 177.068 4018.98 175.83 4057.33 174.593C4074.39 173.403 4090.09 174.507 4107.05 175.701L4108.95 175.834C4085.35 156.042 4052.9 144.911 4017.5 144.911C3976.2 144.911 3937.6 163.469 3914 188.2ZM3995.74 364.294C4003.18 365.356 4009.78 366.299 4017.5 366.299C4048.48 366.299 4076.5 357.639 4100.1 341.56C4092.73 337.851 4085.35 336.613 4079.45 337.851C4076.5 339.084 4073.55 340.326 4072.07 341.56L4072.06 341.567C4067.64 344.036 4063.22 346.507 4055.85 346.507C4049.95 346.507 4045.53 344.035 4042.58 341.564C4041.45 341.092 4040.54 340.62 4039.76 340.216C4038.5 339.562 4037.59 339.088 4036.68 339.088C4029.3 337.851 4020.45 342.798 4010.12 350.22C4004.26 353.905 3998.41 358.812 3992.54 363.727L3992.42 363.823C3993.55 363.981 3994.66 364.139 3995.74 364.294Z" fill="#34485C"/>
<path d="M3940.5 53C3911.66 53 3888 71.2523 3888 93.5C3888 115.748 3911.66 134 3940.5 134C3969.34 134 3993 115.748 3993 93.5C3993 71.2525 3969.34 53.0002 3940.5 53ZM3940.5 73.25C3955.15 73.2502 3966.75 82.1964 3966.75 93.5C3966.75 104.804 3955.15 113.75 3940.5 113.75C3925.85 113.75 3914.25 104.804 3914.25 93.5C3914.25 82.1962 3925.85 73.25 3940.5 73.25Z" fill="#DFA286"/>
<path d="M3940.5 2C3875.76 2 3823 43.189 3823 93.7268C3823 110.407 3832.79 129.929 3845.64 151.215C3858.5 172.502 3874.93 194.971 3889.86 214.158C3911.32 241.732 3929.79 262.609 3929.79 262.609C3930.99 263.964 3932.6 265.071 3934.47 265.836C3936.34 266.601 3938.41 267 3940.53 267C3942.64 267 3944.72 266.601 3946.59 265.836C3948.45 265.071 3950.06 263.964 3951.26 262.609C3951.26 262.609 3977.63 232.825 4004.04 197.278C4017.25 179.504 4030.51 160.252 4040.61 142.297C4050.71 124.343 4058 108.06 4058 93.7268C4058 43.189 4005.24 2 3940.5 2V2ZM3940.5 22.3837C3991.13 22.3837 4031.89 54.2054 4031.89 93.7268C4031.89 101.909 4026.17 117.253 4016.69 134.096C4007.21 150.939 3994.36 169.681 3981.45 187.046C3960.95 214.629 3947.98 229.087 3940.4 237.846C3934 230.428 3927.34 223.1 3912.14 203.568C3897.5 184.753 3881.47 162.761 3869.26 142.536C3857.04 122.311 3849.11 103.248 3849.11 93.7268C3849.11 54.2054 3889.87 22.3837 3940.5 22.3837V22.3837Z" fill="#DFA286"/>
<path d="M80 459H45V134H120.5C146.5 134 166.167 140.167 179.5 152.5C193.167 164.833 200 182 200 204V289C200 311.333 193.333 328.667 180 341C166.667 353 146.833 359 120.5 359H80V459ZM165 289V204C165 191.333 161.167 181.5 153.5 174.5C145.833 167.5 134.833 164 120.5 164H80V329H120.5C150.167 329 165 315.667 165 289ZM442.48 196.5V396.5C442.48 418.833 435.314 436.167 420.98 448.5C406.98 460.5 385.814 466.5 357.48 466.5C329.48 466.5 308.314 460.5 293.98 448.5C279.647 436.167 272.48 418.833 272.48 396.5V196.5C272.48 174.167 279.48 157 293.48 145C307.814 132.667 328.98 126.5 356.98 126.5C385.314 126.5 406.647 132.667 420.98 145C435.314 157 442.48 174.167 442.48 196.5ZM407.48 396.5V196.5C407.48 169.833 390.814 156.5 357.48 156.5C324.147 156.5 307.48 169.833 307.48 196.5V396.5C307.48 423.167 324.147 436.5 357.48 436.5C390.814 436.5 407.48 423.167 407.48 396.5ZM569.863 459H534.863V134H569.863V459ZM704.629 459H669.629V134H684.629L697.129 166.5C713.129 139.833 735.296 126.5 763.629 126.5C812.629 126.5 837.129 149.833 837.129 196.5V459H802.129V196.5C802.129 183.833 799.296 174 793.629 167C788.296 160 778.296 156.5 763.629 156.5C748.962 156.5 735.462 162.167 723.129 173.5C710.796 184.833 704.629 195.833 704.629 206.5V459ZM924.824 134H1034.82V164H959.824V403.5C959.824 412.833 962.158 420.667 966.824 427C971.824 433.333 978.658 436.5 987.324 436.5C996.324 436.5 1003.16 433.5 1007.82 427.5C1012.49 421.167 1014.82 413.167 1014.82 403.5V344H1049.82V401.5C1049.82 422.5 1044.16 438.667 1032.82 450C1021.82 461 1006.82 466.5 987.824 466.5C968.824 466.5 953.491 461 941.824 450C930.491 438.667 924.824 422.5 924.824 401.5V134ZM1278.82 396.5C1278.82 443.167 1250.66 466.5 1194.32 466.5C1137.99 466.5 1109.82 443.167 1109.82 396.5V354H1144.82V398.5C1144.82 410.5 1148.99 419.833 1157.32 426.5C1165.66 433.167 1177.99 436.5 1194.32 436.5C1210.66 436.5 1222.99 433.167 1231.32 426.5C1239.66 419.833 1243.82 410.833 1243.82 399.5C1243.82 387.833 1242.49 378.667 1239.82 372C1237.49 365 1232.49 357.667 1224.82 350L1136.82 264C1126.49 253.667 1119.32 243.667 1115.32 234C1111.66 224 1109.82 211.5 1109.82 196.5C1109.82 174.167 1116.66 157 1130.32 145C1144.32 132.667 1165.32 126.5 1193.32 126.5C1246.99 126.5 1273.82 149.833 1273.82 196.5V239H1238.82V194.5C1238.82 182.5 1234.82 173.167 1226.82 166.5C1219.16 159.833 1207.49 156.5 1191.82 156.5C1176.16 156.5 1164.32 159.833 1156.32 166.5C1148.66 173.167 1144.82 182.333 1144.82 194C1144.82 205.667 1145.99 214.833 1148.32 221.5C1150.66 228.167 1155.82 235.167 1163.82 242.5L1253.32 328.5C1262.99 339.167 1269.66 349.5 1273.32 359.5C1276.99 369.167 1278.82 381.5 1278.82 396.5ZM1646.58 196.5V396.5C1646.58 418.833 1639.42 436.167 1625.08 448.5C1611.08 460.5 1589.92 466.5 1561.58 466.5C1533.58 466.5 1512.42 460.5 1498.08 448.5C1483.75 436.167 1476.58 418.833 1476.58 396.5V196.5C1476.58 174.167 1483.58 157 1497.58 145C1511.92 132.667 1533.08 126.5 1561.08 126.5C1589.42 126.5 1610.75 132.667 1625.08 145C1639.42 157 1646.58 174.167 1646.58 196.5ZM1611.58 396.5V196.5C1611.58 169.833 1594.92 156.5 1561.58 156.5C1528.25 156.5 1511.58 169.833 1511.58 196.5V396.5C1511.58 423.167 1528.25 436.5 1561.58 436.5C1594.92 436.5 1611.58 423.167 1611.58 396.5ZM1773.96 459H1738.96V134H1876.46V164H1773.96V279H1856.46V309H1773.96V459ZM2131.72 429V459H2046.72V429H2071.72V164H2046.72V134H2131.72V164H2106.72V429H2131.72ZM2251.5 459H2216.5V134H2231.5L2244 166.5C2260 139.833 2282.17 126.5 2310.5 126.5C2359.5 126.5 2384 149.833 2384 196.5V459H2349V196.5C2349 183.833 2346.17 174 2340.5 167C2335.17 160 2325.17 156.5 2310.5 156.5C2295.84 156.5 2282.34 162.167 2270 173.5C2257.67 184.833 2251.5 195.833 2251.5 206.5V459ZM2471.7 134H2581.7V164H2506.7V403.5C2506.7 412.833 2509.03 420.667 2513.7 427C2518.7 433.333 2525.53 436.5 2534.2 436.5C2543.2 436.5 2550.03 433.5 2554.7 427.5C2559.37 421.167 2561.7 413.167 2561.7 403.5V344H2596.7V401.5C2596.7 422.5 2591.03 438.667 2579.7 450C2568.7 461 2553.7 466.5 2534.7 466.5C2515.7 466.5 2500.37 461 2488.7 450C2477.37 438.667 2471.7 422.5 2471.7 401.5V134ZM2789.2 396.5V369H2824.2V396.5C2824.2 418.833 2817.37 436.167 2803.7 448.5C2790.03 460.5 2769.53 466.5 2742.2 466.5C2714.87 466.5 2694.2 460.5 2680.2 448.5C2666.2 436.167 2659.2 418.833 2659.2 396.5V196.5C2659.2 174.167 2666.03 157 2679.7 145C2693.37 132.667 2713.87 126.5 2741.2 126.5C2768.53 126.5 2789.2 132.667 2803.2 145C2817.2 157 2824.2 174.167 2824.2 196.5V306.5H2694.2V396.5C2694.2 423.167 2710.03 436.5 2741.7 436.5C2773.37 436.5 2789.2 423.167 2789.2 396.5ZM2694.2 196.5V276.5H2789.2V196.5C2789.2 169.833 2773.37 156.5 2741.7 156.5C2710.03 156.5 2694.2 169.833 2694.2 196.5ZM2951.7 459H2916.7V134H2931.7L2946.2 171C2956.87 141.333 2973.87 126.5 2997.2 126.5C3036.87 126.5 3056.7 148.167 3056.7 191.5V224H3023.2V189.5C3023.2 167.5 3014.03 156.5 2995.7 156.5C2984.7 156.5 2974.53 162.833 2965.2 175.5C2956.2 188.167 2951.7 206.5 2951.7 230.5V459ZM3239.39 396.5V369H3274.39V396.5C3274.39 418.833 3267.56 436.167 3253.89 448.5C3240.23 460.5 3219.73 466.5 3192.39 466.5C3165.06 466.5 3144.39 460.5 3130.39 448.5C3116.39 436.167 3109.39 418.833 3109.39 396.5V196.5C3109.39 174.167 3116.23 157 3129.89 145C3143.56 132.667 3164.06 126.5 3191.39 126.5C3218.73 126.5 3239.39 132.667 3253.39 145C3267.39 157 3274.39 174.167 3274.39 196.5V306.5H3144.39V396.5C3144.39 423.167 3160.23 436.5 3191.89 436.5C3223.56 436.5 3239.39 423.167 3239.39 396.5ZM3144.39 196.5V276.5H3239.39V196.5C3239.39 169.833 3223.56 156.5 3191.89 156.5C3160.23 156.5 3144.39 169.833 3144.39 196.5ZM3525.89 396.5C3525.89 443.167 3497.73 466.5 3441.39 466.5C3385.06 466.5 3356.89 443.167 3356.89 396.5V354H3391.89V398.5C3391.89 410.5 3396.06 419.833 3404.39 426.5C3412.73 433.167 3425.06 436.5 3441.39 436.5C3457.73 436.5 3470.06 433.167 3478.39 426.5C3486.73 419.833 3490.89 410.833 3490.89 399.5C3490.89 387.833 3489.56 378.667 3486.89 372C3484.56 365 3479.56 357.667 3471.89 350L3383.89 264C3373.56 253.667 3366.39 243.667 3362.39 234C3358.73 224 3356.89 211.5 3356.89 196.5C3356.89 174.167 3363.73 157 3377.39 145C3391.39 132.667 3412.39 126.5 3440.39 126.5C3494.06 126.5 3520.89 149.833 3520.89 196.5V239H3485.89V194.5C3485.89 182.5 3481.89 173.167 3473.89 166.5C3466.23 159.833 3454.56 156.5 3438.89 156.5C3423.23 156.5 3411.39 159.833 3403.39 166.5C3395.73 173.167 3391.89 182.333 3391.89 194C3391.89 205.667 3393.06 214.833 3395.39 221.5C3397.73 228.167 3402.89 235.167 3410.89 242.5L3500.39 328.5C3510.06 339.167 3516.73 349.5 3520.39 359.5C3524.06 369.167 3525.89 381.5 3525.89 396.5ZM3608.42 134H3718.42V164H3643.42V403.5C3643.42 412.833 3645.75 420.667 3650.42 427C3655.42 433.333 3662.25 436.5 3670.92 436.5C3679.92 436.5 3686.75 433.5 3691.42 427.5C3696.08 421.167 3698.42 413.167 3698.42 403.5V344H3733.42V401.5C3733.42 422.5 3727.75 438.667 3716.42 450C3705.42 461 3690.42 466.5 3671.42 466.5C3652.42 466.5 3637.08 461 3625.42 450C3614.08 438.667 3608.42 422.5 3608.42 401.5V134Z" fill="#34485C"/>
</svg>
