<svg width="58" height="58" viewBox="0 0 48 48" fill="none" xmlns="http://www.w3.org/2000/svg">
<path opacity="0.4" d="M44 32.168V15.832C44 8.754 39.448 4 32.67 4H15.33C8.552 4 4 8.754 4 15.832V32.168C4 39.244 8.554 44 15.332 44H32.67C39.448 44 44 39.244 44 32.168Z" fill="#34485C"/>
<path d="M32.5586 22.289L25.0626 14.759C24.4986 14.193 23.5006 14.193 22.9346 14.759L15.4386 22.289C14.8546 22.877 14.8566 23.827 15.4446 24.411C16.0326 24.995 16.9806 24.995 17.5666 24.407L22.5006 19.453V32.163C22.5006 32.993 23.1726 33.663 24.0006 33.663C24.8286 33.663 25.5006 32.993 25.5006 32.163V19.453L30.4326 24.407C30.7266 24.701 31.1106 24.847 31.4966 24.847C31.8786 24.847 32.2626 24.701 32.5546 24.411C33.1406 23.827 33.1426 22.877 32.5586 22.289Z" fill="#34485C"/>
</svg>
