<svg width="40" height="40" viewBox="0 0 40 40" fill="none" xmlns="http://www.w3.org/2000/svg">
<path opacity="0.4" d="M28.6798 -0.000366211H11.3398C4.55976 -0.000366211 -0.000244141 4.75963 -0.000244141 11.8396V28.1796C-0.000244141 35.2396 4.55976 39.9996 11.3398 39.9996H28.6798C35.4598 39.9996 39.9998 35.2396 39.9998 28.1796V11.8396C39.9998 4.75963 35.4598 -0.000366211 28.6798 -0.000366211Z" fill="#34485C"/>
<path d="M26.0312 23.5406L22.4732 19.9846L26.0292 16.4286C26.7132 15.7466 26.7132 14.6366 26.0292 13.9546C25.3452 13.2666 24.2392 13.2686 23.5552 13.9526L19.9972 17.5086L16.4392 13.9486C15.7552 13.2646 14.6472 13.2686 13.9632 13.9486C13.2812 14.6326 13.2812 15.7426 13.9632 16.4246L17.5232 19.9846L13.9712 23.5346C13.2872 24.2186 13.2872 25.3286 13.9712 26.0086C14.3132 26.3526 14.7592 26.5226 15.2072 26.5226C15.6572 26.5226 16.1032 26.3526 16.4452 26.0106L19.9972 22.4586L23.5572 26.0166C23.8992 26.3586 24.3452 26.5286 24.7932 26.5286C25.2412 26.5286 25.6892 26.3566 26.0312 26.0166C26.7152 25.3326 26.7152 24.2246 26.0312 23.5406Z" fill="#34485C"/>
</svg>
