<svg xmlns="http://www.w3.org/2000/svg" width="42" height="42" fill="none" viewBox="0 0 42 42"><path fill="#34485C" d="M41.048 30.2479L40.9517 11.5637C40.9166 4.75494 37.039 0.917095 30.2302 0.95218L11.5638 1.04837C4.75499 1.08345 0.917139 4.96106 0.952224 11.7699L1.0485 30.4541C1.08359 37.2628 4.9611 41.0829 11.7699 41.0478L30.4363 40.9516C37.2451 40.9166 41.0831 37.0567 41.048 30.2479Z" opacity=".4"/><path fill="#34485C" d="M26.2143 11.7104C26.2097 10.8038 25.4592 10.061 24.5347 10.0657L10.7927 10.1366C9.88603 10.1412 9.14322 10.8917 9.14789 11.7984C9.15265 12.7228 9.90316 13.4656 10.8098 13.461L24.5519 13.3901C25.4763 13.3854 26.2191 12.6349 26.2143 11.7104Z"/><path fill="#34485C" d="M32.8222 21.0099C32.8176 20.1032 32.0671 19.3604 31.1426 19.3652L10.8407 19.4698C9.93402 19.4745 9.19122 20.225 9.19589 21.1316C9.20065 22.0561 9.95115 22.7989 10.8578 22.7942L31.1598 22.6896C32.0842 22.6848 32.827 21.9343 32.8222 21.0099Z"/><path fill="#34485C" d="M32.635 30.6533C32.6303 29.7467 31.8798 29.0038 30.9554 29.0086L10.6534 29.1132C9.74677 29.1179 9.00396 29.8684 9.00863 30.7751C9.01339 31.6995 9.7639 32.4423 10.6706 32.4376L30.9725 32.333C31.8969 32.3282 32.6397 31.5777 32.635 30.6533Z"/><path fill="#34485C" d="M32.635 11.6533C32.6303 10.7467 31.8798 10.0038 30.9554 10.0086L10.6534 10.1132C9.74677 10.1179 9.00396 10.8684 9.00863 11.7751C9.01339 12.6995 9.7639 13.4423 10.6706 13.4376L30.9725 13.333C31.8969 13.3282 32.6397 12.5777 32.635 11.6533Z"/></svg>