<svg width="16" height="16" viewBox="0 0 16 16" fill="none" xmlns="http://www.w3.org/2000/svg">
<path d="M14.6409 9.41667H9.49904V14.514C9.49904 15.3347 8.8279 16 8 16C7.1721 16 6.50096 15.3347 6.50096 14.514V9.41667H1.35909C0.586845 9.3374 0 8.69228 0 7.92264C0 7.153 0.586845 6.50789 1.35909 6.42861H6.48484V1.34731C6.56481 0.581757 7.21557 0 7.99194 0C8.76832 0 9.41907 0.581757 9.49904 1.34731V6.42861H14.6409C15.4132 6.50789 16 7.153 16 7.92264C16 8.69228 15.4132 9.3374 14.6409 9.41667Z" fill="#34485C"/>
</svg>
